<?xml version="1.0" encoding="utf-8"?>
<!-- Generator: Adobe Illustrator 18.0.0, SVG Export Plug-In . SVG Version: 6.00 Build 0)  -->
<svg version="1.1" id="root" xmlns="http://www.w3.org/2000/svg" xmlns:xlink="http://www.w3.org/1999/xlink" x="0px" y="0px"
	 width="612px" height="612px" viewBox="0 0 612 612" enable-background="new 0 0 612 612" xml:space="preserve">
<path fill="#FF0000" stroke="#231F20" stroke-miterlimit="10" d="M0,0v612h612V0H0z M51.4,389.4c-0.5,1-1.3,1-1.9,0
	c0,0-1.8-3.5-4.7-6.3c-3.9-3.8-9.5-6.1-17-7.2c-9.4-1.4-16.3-4.5-20.3-9.4c-3.3-4-3.6-7.9-3.6-7.9c-0.1-1.1-0.2-2.9-0.2-4v-77
	c0-1.1,0.7-1.6,1.6-1.1c0.9,0.5,2.4,1.4,3.4,1.9c0,0,9.8,5.5,19.6,3.1c17.1-4.2,21.4-17,21.4-17c0.3-1,0.9-1,1.3,0
	c0,0,4.3,12.8,21.4,17c9.9,2.4,19.8-3.4,19.8-3.4c1-0.6,2.4-1.5,3.3-2c1-0.5,1.7-0.1,1.7,1v77.5c0,1.1-0.1,2.9-0.2,4
	c0,0-0.3,4-3.6,7.9c-4,4.9-10.9,8.1-20.3,9.4c-7.5,1.1-13.1,3.5-17,7.2C53.3,385.8,51.4,389.4,51.4,389.4z M232.1,509.3l0.2-0.2
	C232.3,509.2,232.2,509.3,232.1,509.3z M237.4,498.6L237.4,498.6c0.1,3.3-1,7.7-4.4,10c-0.1,0-0.1,0-0.1,0c-1.4,1.2-3.5,2.1-13,4.3
	c-1.2,0.6-2.9,1.1-4.7,0.9c-9.1,2.5-18.6,2.6-27,0.4c-6.6-1.7-12.2-5-16.5-9.5c-0.4-0.4-2.1-0.9-2.6-0.7c-2.6,0.9-5.5,1.5-8.6,1.7
	c-0.5,0.1-2.4,0.3-4.9,0.3c-0.6,0-2.5,0.5-3.5,1.6c-4.3,4.3-10.1,7-17,8.2c-11.1,1.9-23.6-0.8-33.6-7c-0.8-0.4-2.4-1.6-4-0.5
	c-2.5,1.2-6.5,2.6-11.9,3.4h0.2c-5.2,1-9.9-0.2-12.8-3.4c-1.9-2-2.9-4.7-2.8-7.3c-1.8-4-2.5-5.9-3.3-8.8v-0.1V492
	c-0.2-0.9-0.3-1.7-0.3-2.6c0-0.6-0.7-3.3-1-4c-2-4.1-3.7-8.3-5-12.6c-15-47.9,10.9-78.3,37.9-90.1c28.9-12.5,67.8-7.8,89.1,24.2
	c0.5,0.7,1.8,1.9,3.1,1.4c0.6-0.3,1.4-0.6,2.1-0.9c1.3-0.6,2.1,0.8,2.1,0.8l8.1,14.6l-0.1-0.2c2.9,4.5,1.7,8.4-0.3,10.6
	c-0.9,0.9-1.9,1.6-3.1,2.1c-0.7,0.2-2.4,1.2-2.5,1.5c-0.2,0.8-0.5,1.5-0.9,2.3c-0.5,0.9-1.2,1.7-2.1,2.4c-0.4,0.3-1.1,0.8-0.7,1.9
	c0.4,0.8,4,9.2,5.5,12.9c0.4,1.1,1.9,1.9,2.6,1.9c6.3,0.3,17.1-1,17.1-1c5.4-0.7,9.1,1.3,10.9,5.9l-0.1-0.1l0.5,1.2l0.1,0.2
	c4.2,11.9,6.7,23.1,7.5,34.1V498.6z M589.3,416.5c-41.2-2-114.8,17.6-147.2,113.5c-0.5,1.5-0.8,2.9-3.5,0.5
	c-15.1-13.1-95.5-78.7-192.5-82c-2.5-0.2-2.7-1.4-2.9-2.9c-4.7-48.6-70.9-55.2-95.3-137.6c-0.3-1.4-0.9-2.4-2.7-3.6
	c-10.5-7-59-41.4-90.1-97.5c-0.8-1.4-0.2-1.7,0.8-1.5c0.9,0.1,10.3,2,10.9,2c0.5,0,1.4-0.1,0.3-1.1c-5.5-5.1-24.3-23.7-41.6-53.9
	c-0.3-0.5-0.2-1.5,1-1.3c0.9,0.1,8.8,1.7,12.1,2.3c0.9,0.2,1-0.1,0.3-1c-4.1-5-18.4-25-31.5-71.9C6.6,78,8,78.7,8.8,79.2
	c196.1,99.9,285.9,44.6,403.9,92.7c77.6,31.6,102.9,76.5,115.9,123.2c0.7,3.2,2.4,5.7,4.4,7.3c12.4,9.8,57.4,49.5,59.5,111.3
	C592.5,414.7,593,417.1,589.3,416.5z M607.6,210.9c0,2.4-2.5,4.3-5,4c-1.2-0.1-5.9-0.6-8.3-0.9c-0.8-0.1-1,0-1.5,0.6
	c-6.2,7.7-18.1,17-39.9,23.6c-1.9,0.6-1.9,0.6-3.7,0c-15.7-5-30.4-12.9-39.7-23.6c-0.5-0.6-0.8-0.7-1.6-0.6
	c-2.6,0.3-7.3,0.8-8.4,0.9c-2.8,0.3-5-1.8-5-4c0-1.8,0-17.2,0-18.4c-0.2-1.5,0.7-2.8,2-3.5c0.7-0.4,0.7-0.5,0.7-1.2
	c-0.1-1.3-0.1-1.7-0.2-3.9c-0.1-1.7,0-3.2,0.8-4.7c3.9-7.8,23.6-17.2,53.1-17.5c23.6-0.2,48.2,7.5,53.3,17.5c0.8,1.6,0.9,2.9,0.8,5
	c-0.1,0.9-0.1,1.7-0.3,3.4c-0.1,0.9,0,1,0.7,1.4c1.1,0.6,2.2,1.8,2.2,3.5C607.6,193.8,607.6,208.4,607.6,210.9z M609.5,138.6
	c0,5.2-4.1,9.4-9.1,9.4H358.9c-5,0-9.1-4.2-9.1-9.4v-36.4c0-5.2,4.1-9.4,9.1-9.4h241.5c5,0,9.1,4.2,9.1,9.4V138.6z"/>
</svg>
