<?xml version="1.0" encoding="utf-8"?>
<svg version="1.1" id="root" xmlns="http://www.w3.org/2000/svg" xmlns:xlink="http://www.w3.org/1999/xlink" width="612" height="612" x="0px" y="0px"  style="enable-background:new 0 0 612 612;" xml:space="preserve">
<path d="M496.5,189c0.7-0.4,0.7-0.5,0.7-1.2c-0.1-1.3-0.1-1.7-0.2-3.9c-0.1-1.7,0-3.2,0.8-4.7  c3.9-7.8,23.6-17.2,53.1-17.5c23.6-0.2,48.2,7.5,53.3,17.5c0.8,1.6,0.9,2.9,0.8,5c-0.1,0.9-0.1,1.7-0.3,3.4c-0.1,0.9,0,1,0.7,1.4  c1.1,0.6,2.2,1.8,2.2,3.5c0,1.3,0,15.9,0,18.4c0,2.4-2.5,4.3-5,4c-1.2-0.1-5.9-0.6-8.3-0.9c-0.8-0.1-1,0-1.5,0.6  c-6.2,7.7-18.1,17-39.9,23.6c-1.9,0.6-1.9,0.6-3.7,0c-15.7-5-30.4-12.9-39.7-23.6c-0.5-0.6-0.8-0.7-1.6-0.6  c-2.6,0.3-7.3,0.8-8.4,0.9c-2.8,0.3-5-1.8-5-4c0-1.8,0-17.2,0-18.4C494.3,191,495.2,189.7,496.5,189zM533,302.4c12.4,9.8,57.4,49.5,59.5,111.3c0,1,0.5,3.4-3.2,2.8c-41.2-2-114.8,17.6-147.2,113.5  c-0.5,1.5-0.8,2.9-3.5,0.5c-15.1-13.1-95.5-78.7-192.5-82c-2.5-0.2-2.7-1.4-2.9-2.9c-4.7-48.6-70.9-55.2-95.3-137.6  c-0.3-1.4-0.9-2.4-2.7-3.6c-10.5-7-59-41.4-90.1-97.5c-0.8-1.4-0.2-1.7,0.8-1.5c0.9,0.1,10.3,2,10.9,2c0.5,0,1.4-0.1,0.3-1.1  c-5.5-5.1-24.3-23.7-41.6-53.9c-0.3-0.5-0.2-1.5,1-1.3c0.9,0.1,8.8,1.7,12.1,2.3c0.9,0.2,1-0.1,0.3-1c-4.1-5-18.4-25-31.5-71.9  C6.6,78,8,78.7,8.8,79.2c196.1,99.9,285.9,44.6,403.9,92.7c77.6,31.6,102.9,76.5,115.9,123.2C529.3,298.3,531,300.8,533,302.4zM60.6,472.8c1.3,4.3,3,8.5,5,12.6c0.3,0.7,1,3.4,1,4c0,0.9,0.1,1.7,0.3,2.6l0,0.1l0,0.1  c0.8,2.9,1.5,4.8,3.3,8.8c-0.1,2.6,0.9,5.3,2.8,7.3c2.9,3.2,7.6,4.4,12.8,3.4l-0.2,0c5.4-0.8,9.4-2.2,11.9-3.4  c1.6-1.1,3.2,0.1,4,0.5c10,6.2,22.5,8.9,33.6,7c6.9-1.2,12.7-3.9,17-8.2c1-1.1,2.9-1.6,3.5-1.6c2.5,0,4.4-0.2,4.9-0.3  c3.1-0.2,6-0.8,8.6-1.7c0.5-0.2,2.2,0.3,2.6,0.7c4.3,4.5,9.9,7.8,16.5,9.5c8.4,2.2,17.9,2.1,27-0.4c1.8,0.2,3.5-0.3,4.7-0.9  c9.5-2.2,11.6-3.1,13-4.3l0,0l0,0c0,0,0,0,0.1,0c3.4-2.3,4.5-6.7,4.4-9.9l0-0.1l0-0.1c-0.8-11-3.3-22.2-7.5-34.1l-0.1-0.2l-0.5-1.2  l0.1,0.1c-1.8-4.6-5.5-6.6-10.9-5.9c0,0-10.8,1.3-17.1,1c-0.7,0-2.2-0.8-2.6-1.9c-1.5-3.7-5.1-12.1-5.5-12.9  c-0.4-1.1,0.3-1.6,0.7-1.9c0.9-0.7,1.6-1.5,2.1-2.4c0.4-0.8,0.7-1.5,0.9-2.3c0.1-0.3,1.8-1.3,2.5-1.5c1.2-0.5,2.2-1.2,3.1-2.1  c2-2.2,3.2-6.1,0.3-10.6l0.1,0.2l-8.1-14.6c0,0-0.8-1.4-2.1-0.8c-0.7,0.3-1.5,0.6-2.1,0.9c-1.3,0.5-2.6-0.7-3.1-1.4  c-21.3-32-60.2-36.7-89.1-24.2C71.5,394.5,45.6,424.9,60.6,472.8z M232.1,509.3c0.1,0,0.2-0.1,0.2-0.2L232.1,509.3L232.1,509.3zM609.5,138.6c0,5.2-4.1,9.4-9.1,9.4H358.9c-5,0-9.1-4.2-9.1-9.4v-36.4c0-5.2,4.1-9.4,9.1-9.4  h241.5c5,0,9.1,4.2,9.1,9.4V138.6zM97.2,277.1v77.5c0,1.1-0.1,2.9-0.2,4c0,0-0.3,4-3.6,7.9c-4,4.9-10.9,8.1-20.3,9.4  c-7.5,1.1-13.1,3.5-17,7.2c-2.8,2.7-4.7,6.3-4.7,6.3c-0.5,1-1.3,1-1.9,0c0,0-1.8-3.5-4.7-6.3c-3.9-3.8-9.5-6.1-17-7.2  c-9.4-1.4-16.3-4.5-20.3-9.4c-3.3-4-3.6-7.9-3.6-7.9c-0.1-1.1-0.2-2.9-0.2-4v-77c0-1.1,0.7-1.6,1.6-1.1c0.9,0.5,2.4,1.4,3.4,1.9  c0,0,9.8,5.5,19.6,3.1c17.1-4.2,21.4-17,21.4-17c0.3-1,0.9-1,1.3,0c0,0,4.3,12.8,21.4,17c9.9,2.4,19.8-3.4,19.8-3.4  c1-0.6,2.4-1.5,3.3-2C96.5,275.6,97.2,276,97.2,277.1z" fill="none" stroke-miterlimit="10" stroke="#000"></path>
</svg>
