<?xml version="1.0" encoding="utf-8"?>
<!-- Generator: Adobe Illustrator 18.0.0, SVG Export Plug-In . SVG Version: 6.00 Build 0)  -->
<svg version="1.1" id="Capa_1" xmlns="http://www.w3.org/2000/svg" xmlns:xlink="http://www.w3.org/1999/xlink" x="0px" y="0px"
	 width="1000px" height="1000px" viewBox="-484 -484 1000 1000" enable-background="new -484 -484 1000 1000" xml:space="preserve">
<path fill="none" stroke="#000000" stroke-miterlimit="10" d="M394,86.7c-35.8-4.7-62.7-35-62.7-70.7s26.9-66.2,62.7-70.8
	c7.1-0.9,13.5-4.8,17.5-10.8c4-5.9,5.3-13.3,3.6-20.3c-9.7-38.2-24.8-74.7-45-108.6c-3.7-6.2-9.8-10.5-16.8-11.8
	c-7.1-1.3-14.3,0.4-20,4.8c-27.6,21.3-69.6,18.9-94.3-5.7c-25.3-25.3-27.8-65.8-5.8-94.3c4.4-5.7,6.1-12.9,4.8-20
	c-1.4-7-5.6-13.1-11.8-16.8c-33.8-20.1-70.3-35.2-108.6-45c-7-1.8-14.3-0.5-20.3,3.6c-6,4.1-9.9,10.4-10.8,17.5
	c-4.7,35.7-35,62.6-70.8,62.6c-35.8,0-66.2-26.9-70.7-62.6c-0.9-7.1-4.8-13.5-10.8-17.5c-5.9-4-13.3-5.3-20.3-3.6
	c-38.2,9.8-74.7,24.9-108.6,45c-6,3.7-10.3,9.8-11.7,16.8c-1.3,7,0.4,14.3,4.8,20c22,28.5,19.6,69.1-5.7,94.3
	c-24.6,24.6-66.7,27.1-94.4,5.8c-5.7-4.4-12.9-6.1-20-4.8c-7,1.4-13.1,5.6-16.8,11.8c-20.2,33.9-35.3,70.4-45,108.6
	c-1.8,6.9-0.5,14.3,3.6,20.2c4,5.9,10.4,9.8,17.5,10.8c35.7,4.6,62.6,35,62.6,70.8s-26.9,66.1-62.6,70.7
	c-7.1,0.9-13.5,4.8-17.5,10.8c-4,5.9-5.3,13.3-3.6,20.3c9.7,38.1,24.8,74.7,45,108.6c3.7,6.2,9.8,10.5,16.8,11.8
	c7,1.3,14.3-0.5,20-4.7c27.7-21.4,69.8-18.9,94.4,5.7c25.3,25.3,27.7,65.8,5.7,94.3c-4.4,5.7-6.1,13-4.7,20
	c1.4,7,5.7,13.1,11.8,16.8c33.8,20.1,70.3,35.2,108.6,45c2,0.5,4.1,0.7,6.2,0.7c5,0,9.9-1.5,14.1-4.3c5.9-4,9.8-10.4,10.8-17.5
	c4.6-35.7,35-62.6,70.7-62.6c35.7,0,66.2,26.9,70.8,62.6c0.9,7.1,4.8,13.5,10.8,17.5c5.9,4,13.2,5.3,20.3,3.6
	c38.2-9.8,74.7-24.9,108.6-45c6.1-3.7,10.4-9.8,11.8-16.8c1.4-7-0.4-14.3-4.7-20c-22-28.6-19.5-69.1,5.7-94.3
	c24.7-24.6,66.7-27,94.3-5.7c5.7,4.4,12.9,6.1,20,4.7c7-1.4,13.1-5.7,16.8-11.8c20.2-33.9,35.3-70.4,45-108.6
	c1.8-6.9,0.5-14.3-3.6-20.2C407.5,91.5,401.2,87.6,394,86.7z"/>
</svg>
