<?xml version="1.0" encoding="UTF-8" standalone="no"?>
<!-- Generator: Adobe Illustrator 19.0.0, SVG Export Plug-In . SVG Version: 6.00 Build 0)  -->

<svg
   xmlns:dc="http://purl.org/dc/elements/1.1/"
   xmlns:cc="http://creativecommons.org/ns#"
   xmlns:rdf="http://www.w3.org/1999/02/22-rdf-syntax-ns#"
   xmlns:svg="http://www.w3.org/2000/svg"
   xmlns="http://www.w3.org/2000/svg"
   xmlns:sodipodi="http://sodipodi.sourceforge.net/DTD/sodipodi-0.dtd"
   xmlns:inkscape="http://www.inkscape.org/namespaces/inkscape"
   version="1.1"
   id="Layer_1"
   x="0px"
   y="0px"
   viewBox="0 0 612 612"
   style="enable-background:new 0 0 612 612;"
   xml:space="preserve"
   inkscape:version="0.91 r13725"
   sodipodi:docname="Example_Wing.svg"><metadata
     id="metadata10"><rdf:RDF><cc:Work
         rdf:about=""><dc:format>image/svg+xml</dc:format><dc:type
           rdf:resource="http://purl.org/dc/dcmitype/StillImage" /></cc:Work></rdf:RDF></metadata><defs
     id="defs8" /><sodipodi:namedview
     pagecolor="#ffffff"
     bordercolor="#666666"
     borderopacity="1"
     objecttolerance="10"
     gridtolerance="10"
     guidetolerance="10"
     inkscape:pageopacity="0"
     inkscape:pageshadow="2"
     inkscape:window-width="640"
     inkscape:window-height="480"
     id="namedview6"
     showgrid="false"
     inkscape:zoom="0.38562092"
     inkscape:cx="306"
     inkscape:cy="306"
     inkscape:window-x="0"
     inkscape:window-y="0"
     inkscape:window-maximized="0"
     inkscape:current-layer="Layer_1" /><style
     type="text/css"
     id="style3">
	.st0{fill:none;stroke:#FFF200;stroke-width:2;}
</style><path
     id="XMLID_5_"
     class="st0"
     d="m 543,302.4 c 12.4,9.8 57.4,49.5 59.5,111.3 0,1 0.5,3.4 -3.2,2.8 -41.2,-2 -114.8,17.6 -147.2,113.5 -0.5,1.5 -0.8,2.9 -3.5,0.5 -15.1,-13.1 -95.5,-78.7 -192.5,-82 -2.5,-0.2 -2.7,-1.4 -2.9,-2.9 -4.7,-48.6 -70.9,-55.2 -95.3,-137.6 -0.3,-1.4 -0.9,-2.4 -2.7,-3.6 -10.5,-7 -59,-41.4 -90.1,-97.5 -0.8,-1.4 -0.2,-1.7 0.8,-1.5 0.9,0.1 10.3,2 10.9,2 0.5,0 1.4,-0.1 0.3,-1.1 -5.5,-5.1 -24.3,-23.7 -41.6,-53.9 -0.3,-0.5 -0.2,-1.5 1,-1.3 0.9,0.1 8.8,1.7 12.1,2.3 0.9,0.2 1,-0.1 0.3,-1 -4.1,-5 -18.4,-25 -31.5,-71.9 -0.8,-2.5 0.6,-1.8 1.4,-1.3 196.1,99.9 285.9,44.6 403.9,92.7 77.6,31.6 102.9,76.5 115.9,123.2 0.7,3.2 2.4,5.7 4.4,7.3 z"
     inkscape:connector-curvature="0"
     style="fill:none;stroke:#fff200;stroke-width:2" /></svg>