<?xml version="1.0" encoding="utf-8"?>
<!-- Generator: Adobe Illustrator 18.0.0, SVG Export Plug-In . SVG Version: 6.00 Build 0)  -->
<svg version="1.1" id="Capa_1" xmlns="http://www.w3.org/2000/svg" xmlns:xlink="http://www.w3.org/1999/xlink" x="0px" y="0px"
	 width="1000px" height="1000px" viewBox="-447 -447 1000 1000" enable-background="new -447 -447 1000 1000" xml:space="preserve">
<path fill="none" stroke="#000000" stroke-miterlimit="10" d="M20.4-395.8c13.8-15.1,32-22.6,53.6-22.6c20.6,0,38.8,7.5,53.5,22.6
	c14.6,14.6,22.2,32.4,22.2,53.1c0,21.7-7.5,39.8-22.2,54.3c-14.7,14.2-32.9,21-53.5,21c-21.6,0-39.8-6.8-53.6-21
	C5.9-303-1.1-321-1.1-342.7C-1.1-363.4,5.9-381.2,20.4-395.8z"/>
<path fill="none" stroke="#000000" stroke-miterlimit="10" d="M-107.7-151c0-25.5,9.9-48.6,28.9-68.2c19.2-19,41.8-28.7,68.3-28.7
	h168c27.5,0,49.9,9.8,68.7,28.7c19.2,19.7,28.5,42.7,28.5,68.2V85.4c0,8.9-3.5,16.9-8.7,23.4c-5.9,6.4-13.8,9.3-24.2,9.3
	c-8.9,0-17-2.9-24.1-9.3c-5.9-6.5-8.7-14.5-8.7-23.4V-126h-17.9v585.4c0,11.3-3.9,21.7-12.1,29.7c-8.9,8.9-18.7,12.7-30,12.7
	c-13.3,0-24.1-3.8-32.5-12.7c-8.2-8-12.7-18.4-12.7-29.7V120.1H64.7v339.4c0,11.3-4.1,21.7-13,29.7c-8.2,8.9-18.6,12.7-31.4,12.7
	c-11.8,0-22-3.8-30.8-12.7c-9.4-8-14.3-18.4-14.3-29.7V-126H-42V85.4c0,8.9-2.8,16.9-8.3,23.4c-6.3,6.4-14.2,9.3-24.5,9.3
	c-9,0-16.8-2.9-23.1-9.3c-6.8-6.5-9.9-14.5-9.9-23.4V-151H-107.7z"/>
</svg>
