<?xml version="1.0" encoding="UTF-8" standalone="no"?>
<!-- Generator: Adobe Illustrator 18.0.0, SVG Export Plug-In . SVG Version: 6.00 Build 0)  -->

<svg
   xmlns:dc="http://purl.org/dc/elements/1.1/"
   xmlns:cc="http://creativecommons.org/ns#"
   xmlns:rdf="http://www.w3.org/1999/02/22-rdf-syntax-ns#"
   xmlns:svg="http://www.w3.org/2000/svg"
   xmlns="http://www.w3.org/2000/svg"
   xmlns:xlink="http://www.w3.org/1999/xlink"
   xmlns:sodipodi="http://sodipodi.sourceforge.net/DTD/sodipodi-0.dtd"
   xmlns:inkscape="http://www.inkscape.org/namespaces/inkscape"
   version="1.1"
   id="Layer_1"
   x="0px"
   y="0px"
   width="1000px"
   height="1000px"
   viewBox="0 0 1000 1000"
   enable-background="new 0 0 1000 1000"
   xml:space="preserve"
   inkscape:version="0.91 r13725"
   sodipodi:docname="input-1-incscape.svg"><metadata
     id="metadata25"><rdf:RDF><cc:Work
         rdf:about=""><dc:format>image/svg+xml</dc:format><dc:type
           rdf:resource="http://purl.org/dc/dcmitype/StillImage" /><dc:title></dc:title></cc:Work></rdf:RDF></metadata><defs
     id="defs23" /><sodipodi:namedview
     pagecolor="#ffffff"
     bordercolor="#666666"
     borderopacity="1"
     objecttolerance="10"
     gridtolerance="10"
     guidetolerance="10"
     inkscape:pageopacity="0"
     inkscape:pageshadow="2"
     inkscape:window-width="1360"
     inkscape:window-height="706"
     id="namedview21"
     showgrid="false"
     inkscape:zoom="0.236"
     inkscape:cx="500"
     inkscape:cy="500"
     inkscape:window-x="-8"
     inkscape:window-y="-8"
     inkscape:window-maximized="1"
     inkscape:current-layer="Layer_1" /><polygon
     fill="#FFFFFF"
     points="0,0 0,1000 998,1000 998,394 749.2,636.5 807.9,979 500.3,817.3 192.8,979 251.5,636.5 2.7,394   346.6,344 500.3,32.4 654.1,344 998,394 998,0 "
     id="polygon3" /><rect
     width="998.5"
     height="1000"
     id="rect5" /><polygon
     fill="#FFFFFF"
     points="0,0.5 0,999.5 997.5,999.5 997.5,395.2 749.7,636.7 808.6,979.9 807.7,979.4 500.3,817.9   192.1,979.9 192.3,978.9 251,636.7 1.6,393.6 2.6,393.5 346.2,343.5 500.3,31.3 500.8,32.2 654.5,343.5 997.5,393.4 997.5,0.5 "
     id="polygon7" /><g
     id="g9"><defs
       id="defs11"><rect
         id="SVGID_1_"
         width="1000"
         height="1000" /></defs><clipPath
       id="SVGID_2_"><use
         xlink:href="#SVGID_1_"
         overflow="visible"
         id="use15" /></clipPath><polygon
       clip-path="url(#SVGID_2_)"
       fill="none"
       stroke="#000000"
       stroke-miterlimit="10"
       points="-1.5,999.5 997.5,999.5    997.5,395.2 749.7,636.7 808.6,979.9 807.7,979.4 500.3,817.9 192.1,979.9 192.3,978.9 251,636.7 1.6,393.6 2.6,393.5 346.2,343.5    500.3,31.3 500.8,32.2 654.5,343.5 997.5,393.4 997.5,0.5 -1.5,0.5  "
       id="polygon17" /></g><polygon
     fill="#FFFFFF"
     points="3.8,394.3 252.1,636.3 252,636.6 193.4,978.1 500.3,816.7 500.6,816.9 807.2,978.1 748.6,636.3   748.8,636.2 996.9,394.3 653.8,344.5 653.7,344.2 500.3,33.5 346.9,344.5 346.6,344.5 "
     id="polygon19" /></svg>