<?xml version="1.0" encoding="utf-8"?>
<!-- Generator: Adobe Illustrator 18.0.0, SVG Export Plug-In . SVG Version: 6.00 Build 0)  -->
<svg version="1.1" id="Layer_1" xmlns="http://www.w3.org/2000/svg" xmlns:xlink="http://www.w3.org/1999/xlink" x="0px" y="0px"
     width="1000px" height="1000px" viewBox="0 0 1000 1000" enable-background="new 0 0 1000 1000" xml:space="preserve">
<path fill="none" stroke="#000000" stroke-miterlimit="10" d="M346.9,176.8c0,75.8-61.5,137.3-137.3,137.3S72.3,252.7,72.3,176.8
    S133.8,39.5,209.6,39.5S346.9,101,346.9,176.8z"/>
<path fill="none" stroke="#000000" stroke-miterlimit="10" d="M901.6,240.7H511.8V54.3h389.8V240.7z"/>
<path fill="none" stroke="#000000" stroke-miterlimit="10" d="M406.1,585.3l-129.8,72.9l-128-76l1.8-148.9l129.8-72.9l128,76
    L406.1,585.3z"/>
<path fill="none" stroke="#000000" stroke-miterlimit="10" d="M714.5,307.4L775.1,424l130.4,16.2l-92.2,93.6l24.8,129l-117.5-58.8
    l-115,63.5l19.6-129.9l-95.9-89.8l129.6-21.5L714.5,307.4z"/>
<path fill="none" stroke="#000000" stroke-miterlimit="10" d="M142,959.5h726"/>
<path fill="none" stroke="#000000" stroke-miterlimit="10" d="M351.1,790.2c0,37-45.9,66.9-102.5,66.9S146,827.2,146,790.2
    c0-37,45.9-66.9,102.5-66.9S351.1,753.2,351.1,790.2z"/>
<path fill="none" stroke="#000000" stroke-miterlimit="10" d="M844,836.5H564L672.5,740l-172.4-16.9"/>
 <polyline points="0,40 40,40 40,80 80,80 80,120 120,120 120,160"
  style="fill:white;stroke:red;stroke-width:4" />
 <ellipse cx="200" cy="80" rx="100" ry="50"
  style="fill:yellow;stroke:purple;stroke-width:2" />
  <circle cx="50" cy="50" r="40" stroke="black" stroke-width="3" fill="red" />
   <rect width="300" height="100" style="fill:rgb(0,0,255);stroke-width:3;stroke:rgb(0,0,0)" />
</svg>